<svg width="24" height="24" viewBox="0 0 24 24" fill="none" xmlns="http://www.w3.org/2000/svg">
<path fill-rule="evenodd" clip-rule="evenodd" d="M19.1151 3.31986L19.3161 3.38136L19.5126 3.44686C20.0027 3.6187 20.3864 4.0065 20.5531 4.49837C21.3366 6.78739 21.0876 9.10641 19.8246 11.4054C19.3041 12.3524 18.6381 13.2489 17.8276 14.0944L17.6031 14.3239L17.3906 14.5319L17.3846 14.5964C17.2371 15.9735 16.1926 17.7945 14.2681 20.149L14.1011 20.3525L13.7936 20.72C13.4456 21.133 12.7976 21.018 12.5946 20.53L12.5706 20.4645L11.4946 17.0305L11.3971 16.963C10.7925 16.5322 10.2166 16.0626 9.67309 15.557L9.40559 15.302L9.1436 15.042C8.36972 14.2544 7.6732 13.3945 7.0636 12.4739L7.0041 12.3814L3.50011 11.2484C3.00711 11.0884 2.84811 10.4789 3.16111 10.0959L3.20261 10.0489L3.24761 10.0069C6.1296 7.48889 8.2561 6.24038 9.77909 6.34438L9.87709 6.35288L9.93409 6.35988L10.0626 6.22988C10.7536 5.54288 11.4771 4.95837 12.2336 4.47787L12.4866 4.32137L12.7191 4.18537C14.8301 2.98836 16.9731 2.69386 19.1151 3.32036V3.31986ZM8.4696 15.7265C9.63159 16.9075 9.76609 18.177 8.4781 19.486C7.6801 20.2965 6.3881 20.7835 4.6101 20.992C4.5181 21.003 4.4251 21.0025 4.3326 20.9915C3.70761 20.9155 3.25111 20.36 3.28111 19.7255L3.28761 19.6425L3.31311 19.4325C3.53111 17.7375 4.00311 16.4965 4.7696 15.7175C6.0576 14.4089 7.3071 14.5459 8.4696 15.7265ZM14.25 11.25C15.0784 11.25 15.75 10.5784 15.75 9.75C15.75 8.92157 15.0784 8.25 14.25 8.25C13.4216 8.25 12.75 8.92157 12.75 9.75C12.75 10.5784 13.4216 11.25 14.25 11.25Z" fill="#EEEEEE"/>
</svg>
