<svg preserveAspectRatio="none" width="100%" height="100%" overflow="visible" style="display: block;" viewBox="0 0 16 16" fill="none" xmlns="http://www.w3.org/2000/svg">
<g id="icon_theme">
<g id="&#231;&#159;&#169;&#229;&#189;&#162;">
</g>
<path id="&#229;&#189;&#162;&#231;&#138;&#182;&#231;&#187;&#147;&#229;&#144;&#136;" fill-rule="evenodd" clip-rule="evenodd" d="M4.28359 1.65896C5.3905 2.05921 7.29597 2.25933 8 2.25933C8.70404 2.25933 10.6114 2.05921 11.7221 1.65896C12.0557 1.53872 12.4279 1.60519 12.6986 1.83424L15.2749 4.99428C15.4139 5.1108 15.4788 5.29344 15.4447 5.47155L15.1209 7.16047C15.0718 7.41664 14.8341 7.59203 14.5748 7.5633L13.3346 7.42587V13.4501C13.3346 14.0024 12.8869 14.4501 12.3346 14.4501L3.66395 14.3902C3.11519 14.3853 2.67294 13.939 2.67294 13.3902V7.42587L1.42496 7.56355C1.16579 7.59214 0.928161 7.41677 0.879075 7.16069L0.555376 5.47193C0.521197 5.29361 0.586367 5.11078 0.72563 4.99429L3.3079 1.83424C3.57815 1.60489 3.95015 1.53875 4.28359 1.65896ZM4.28649 2.71175C4.08035 2.65028 3.85445 2.71345 3.72099 2.88216L1.73495 5.39273C1.64481 5.50668 1.60869 5.6542 1.636 5.7969L1.68729 6.06496C1.73626 6.32093 1.97363 6.49635 2.23271 6.46804L2.56328 6.4319L3.11811 6.37069C3.41416 6.33803 3.67294 6.56983 3.67294 6.86768V10.4592H12.3346V6.8674C12.3346 6.56946 12.5936 6.33763 12.8897 6.37044L13.4448 6.43195L13.7662 6.46747C14.0253 6.49611 14.2629 6.32086 14.3121 6.06486L14.3638 5.7962C14.3912 5.65333 14.3551 5.50558 14.2648 5.39151L12.2665 2.8671C12.1405 2.70796 11.9275 2.64623 11.7359 2.71339C10.6682 3.07461 8.76143 3.25933 8 3.25933C7.23718 3.25933 5.50125 3.07395 4.28649 2.71175ZM12.3346 11.4592H3.67294V12.8937C3.67294 13.1685 3.89469 13.3918 4.16948 13.3937L11.8312 13.4467C12.1087 13.4486 12.3346 13.2242 12.3346 12.9467V11.4592Z" fill="var(--fill-0, #979797)"/>
</g>
</svg>
