<svg width="24" height="24" viewBox="0 0 24 24" fill="none" xmlns="http://www.w3.org/2000/svg">
<path fill-rule="evenodd" clip-rule="evenodd" d="M7.20618 3C6.98382 3 6.77059 3.08847 6.61355 3.24589L2.2356 7.63427C1.93916 7.93142 1.9086 8.40216 2.16413 8.73514L11.3359 20.6869C11.671 21.1235 12.329 21.1235 12.6641 20.6869L21.8359 8.73514C22.0914 8.40216 22.0608 7.93142 21.7644 7.63427L17.3865 3.24589C17.2294 3.08847 17.0162 3 16.7938 3H7.20618ZM15.8141 11.4025C15.4841 11.1424 15.0159 11.2127 14.7684 11.5595L12.3645 14.9262C12.1851 15.1775 11.8115 15.1775 11.632 14.9261L9.2316 11.5628C8.98409 11.216 8.51591 11.1457 8.1859 11.4058C7.85588 11.666 7.789 12.158 8.03651 12.5049L11.2818 17.0527L11.2818 17.0527C11.3629 17.1558 11.3629 17.1558 11.461 17.2411C11.857 17.5532 12.4189 17.4689 12.7159 17.0527L15.9635 12.5016C16.211 12.1547 16.1441 11.6626 15.8141 11.4025Z" fill="#EEEEEE"/>
</svg>
