<svg width="24" height="24" viewBox="0 0 24 24" fill="none" xmlns="http://www.w3.org/2000/svg">
<rect width="24" height="24" fill="#3C3C3C" fill-opacity="0.01"/>
<mask id="mask0_0_7808" style="mask-type:luminance" maskUnits="userSpaceOnUse" x="0" y="0" width="24" height="24">
<rect width="24" height="24" fill="white"/>
</mask>
<g mask="url(#mask0_0_7808)">
<path fill-rule="evenodd" clip-rule="evenodd" d="M19.0429 7.9827C17.6327 5.60086 15.0064 4 12.0002 4C7.99276 4 4.66134 6.84454 3.98353 10.5903C2.58916 11.5477 1.83476 12.6409 2.03063 13.7323C2.22693 14.8246 3.31803 15.5987 4.9646 16.0298C6.37656 18.4043 8.99848 20 12.0002 20C16.0042 20 19.333 17.1611 20.0152 13.4205C21.4104 12.4627 22.1653 11.3695 21.9694 10.2781C21.7735 9.18746 20.6851 8.41384 19.0429 7.9827ZM17.3875 13.7249C17.2025 13.5802 16.9529 13.5438 16.733 13.6294C15.472 14.1155 14.0253 14.5085 12.4967 14.7732C10.9892 15.0344 9.51344 15.1516 8.17365 15.123C7.80903 15.1154 7.50714 15.3996 7.49936 15.7578C7.49158 16.1161 7.78086 16.4127 8.14548 16.4203C9.5733 16.4506 11.1354 16.3265 12.726 16.051C14.3391 15.7712 15.8708 15.3552 17.215 14.8372C17.4355 14.7532 17.5934 14.5598 17.629 14.3301C17.6646 14.1005 17.5725 13.8696 17.3875 13.7249Z" fill="#EEEEEE"/>
</g>
</svg>
