<svg width="24" height="24" viewBox="0 0 24 24" fill="none" xmlns="http://www.w3.org/2000/svg">
<path fill-rule="evenodd" clip-rule="evenodd" d="M19.3469 5.22593C19.638 5.22593 19.9196 5.33326 20.1334 5.52942C20.3668 5.74221 20.5 6.04008 20.5 6.35279V9.17083C20.5 19.4987 12.6116 20.906 12.1874 20.9816C12.1837 20.9823 12.1806 20.9828 12.1781 20.9833C12.1112 20.9945 12.0421 21 11.9744 21C11.9062 21 11.838 20.9945 11.7702 20.9833C11.7678 20.9829 11.7649 20.9823 11.7615 20.9817C11.3457 20.9074 3.5 19.5037 3.5 9.17083V6.35279C3.5 6.04008 3.63274 5.74219 3.86573 5.52942C4.08042 5.33324 4.36286 5.22593 4.65447 5.22593C4.6801 5.22593 4.70529 5.22593 4.73047 5.22778C4.74877 5.22961 4.93367 5.24077 5.22345 5.24077C5.7032 5.24077 7.65856 5.20746 8.54616 4.99469C9.75926 4.70318 10.9966 3.51205 11.2765 3.24257C11.3094 3.21096 11.329 3.19203 11.3339 3.18872C11.5276 3.06292 11.751 3 11.9739 3C12.1977 3 12.4211 3.06292 12.6152 3.19056C12.7054 3.24948 12.847 3.36462 13.0257 3.50995C13.6103 3.98526 14.5921 4.78354 15.4703 4.99469C16.3584 5.20746 18.2959 5.24077 18.7761 5.24077C19.0658 5.24077 19.2512 5.22961 19.2673 5.22778C19.2938 5.22593 19.3203 5.22593 19.3469 5.22593ZM16.29 9.22955C16.0026 8.9313 15.5278 8.92254 15.2295 9.20997L11.3877 12.9131C11.2142 13.0802 10.9399 13.0812 10.7653 12.9152L8.76677 11.0151C8.46658 10.7297 7.99186 10.7417 7.70645 11.0419C7.42104 11.3421 7.43303 11.8168 7.73323 12.1022L10.3559 14.5957C10.7632 14.983 11.4033 14.9808 11.808 14.5907L16.2705 10.29C16.5687 10.0026 16.5775 9.52779 16.29 9.22955Z" fill="#EEEEEE"/>
</svg>
