<svg preserveAspectRatio="none" width="100%" height="100%" overflow="visible" style="display: block;" viewBox="0 0 16 16" fill="none" xmlns="http://www.w3.org/2000/svg">
<g id="icon_menu">
<g id="&#231;&#159;&#169;&#229;&#189;&#162;">
</g>
<path id="&#229;&#189;&#162;&#231;&#138;&#182;&#231;&#187;&#147;&#229;&#144;&#136;" fill-rule="evenodd" clip-rule="evenodd" d="M2 3C2 2.72386 2.22386 2.5 2.5 2.5H13.5C13.7761 2.5 14 2.72386 14 3C14 3.27614 13.7761 3.5 13.5 3.5H2.5C2.22386 3.5 2 3.27614 2 3ZM2 8C2 7.72386 2.22386 7.5 2.5 7.5H13.5C13.7761 7.5 14 7.72386 14 8C14 8.27614 13.7761 8.5 13.5 8.5H2.5C2.22386 8.5 2 8.27614 2 8ZM2.5 12.5C2.22386 12.5 2 12.7239 2 13C2 13.2761 2.22386 13.5 2.5 13.5H13.5C13.7761 13.5 14 13.2761 14 13C14 12.7239 13.7761 12.5 13.5 12.5H2.5Z" fill="var(--fill-0, #717171)"/>
</g>
</svg>
