<svg preserveAspectRatio="none" width="100%" height="100%" overflow="visible" style="display: block;" viewBox="0 0 16 16" fill="none" xmlns="http://www.w3.org/2000/svg">
<g id="icon_close">
<g id="&#231;&#159;&#169;&#229;&#189;&#162;">
</g>
<path id="&#229;&#189;&#162;&#231;&#138;&#182;&#231;&#187;&#147;&#229;&#144;&#136;" fill-rule="evenodd" clip-rule="evenodd" d="M2.35355 2.35355C2.15829 2.54882 2.15829 2.8654 2.35355 3.06066L7.3033 8.01041L2.35355 12.9602C2.15829 13.1554 2.15829 13.472 2.35355 13.6673C2.54882 13.8625 2.8654 13.8625 3.06066 13.6673L8.01041 8.71751L12.9602 13.6673C13.1554 13.8625 13.472 13.8625 13.6673 13.6673C13.8625 13.472 13.8625 13.1554 13.6673 12.9602L8.71751 8.01041L13.6673 3.06066C13.8625 2.8654 13.8625 2.54882 13.6673 2.35355C13.472 2.15829 13.1554 2.15829 12.9602 2.35355L8.01041 7.3033L3.06066 2.35355C2.8654 2.15829 2.54882 2.15829 2.35355 2.35355Z" fill="var(--fill-0, #3A3A3A)"/>
</g>
</svg>
