<svg preserveAspectRatio="none" width="100%" height="100%" overflow="visible" style="display: block;" viewBox="0 0 16 16" fill="none" xmlns="http://www.w3.org/2000/svg">
<g id="icon_buy">
<g id="&#231;&#159;&#169;&#229;&#189;&#162;">
</g>
<path id="&#229;&#189;&#162;&#231;&#138;&#182;&#231;&#187;&#147;&#229;&#144;&#136;" fill-rule="evenodd" clip-rule="evenodd" d="M1.5 1.5C2.60457 1.5 3.5 2.39543 3.5 3.5H13C13.7797 3.5 14.4204 4.09489 14.4931 4.85554L14.5 5V10C14.5 10.8284 13.8284 11.5 13 11.5H4C3.17157 11.5 2.5 10.8284 2.5 10V4.5V3.5C2.5 2.98716 2.11396 2.56449 1.61662 2.50673L1.5 2.5C1.22386 2.5 1 2.27614 1 2C1 1.72386 1.22386 1.5 1.5 1.5ZM3.5 10C3.5 10.2761 3.72386 10.5 4 10.5H13C13.2761 10.5 13.5 10.2761 13.5 10V5C13.5 4.72386 13.2761 4.5 13 4.5H3.5V7H10.5C10.7761 7 11 7.22386 11 7.5C11 7.77614 10.7761 8 10.5 8H3.5V10ZM5 13.5C5 14.0523 4.55228 14.5 4 14.5C3.44772 14.5 3 14.0523 3 13.5C3 12.9477 3.44772 12.5 4 12.5C4.55228 12.5 5 12.9477 5 13.5ZM12 14.5C12.5523 14.5 13 14.0523 13 13.5C13 12.9477 12.5523 12.5 12 12.5C11.4477 12.5 11 12.9477 11 13.5C11 14.0523 11.4477 14.5 12 14.5Z" fill="var(--fill-0, #979797)"/>
</g>
</svg>
