<svg width="24" height="24" viewBox="0 0 24 24" fill="none" xmlns="http://www.w3.org/2000/svg">
<path fill-rule="evenodd" clip-rule="evenodd" d="M9.49453 3C9.19451 3 8.92336 3.1788 8.80517 3.45456L4.94803 12.4546C4.73593 12.9495 5.09895 13.5 5.63739 13.5H9.5697C10.048 13.5 10.4041 13.9417 10.3026 14.4091L9.07248 20.0758C8.90961 20.8261 9.84555 21.3075 10.3611 20.7386L19.8638 10.2537C20.3007 9.77161 19.9586 9 19.3081 9H16.2135C15.656 9 15.2934 8.41327 15.5427 7.91459L17.4573 4.08541C17.7066 3.58673 17.344 3 16.7865 3H9.49453ZM13.5 4.2C13.9142 4.2 14.25 4.53579 14.25 4.95C14.25 5.36421 13.9142 5.7 13.5 5.7H11.4891C11.1891 5.7 10.9179 5.8788 10.7997 6.15456L9.90421 8.24408C9.74105 8.6248 9.30014 8.80116 8.91942 8.638C8.53869 8.47483 8.36233 8.03392 8.5255 7.6532L9.61582 5.10912C9.85218 4.5576 10.3945 4.2 10.9945 4.2H13.5ZM7.63827 9.72339C7.80144 9.34267 8.24235 9.16631 8.62307 9.32947C9.00379 9.49264 9.18016 9.93355 9.01699 10.3143L8.62307 11.2259C8.4599 11.6066 8.01899 11.783 7.63827 11.6198C7.25755 11.4567 7.08119 11.0157 7.24435 10.635L7.63827 9.72339Z" fill="#EEEEEE"/>
</svg>
