<svg preserveAspectRatio="none" width="100%" height="100%" overflow="visible" style="display: block;" viewBox="0 0 16 16" fill="none" xmlns="http://www.w3.org/2000/svg">
<g id="icon_history">
<rect id="&#231;&#159;&#169;&#229;&#189;&#162;" width="16" height="16" fill="var(--fill-0, #D8D8D8)" fill-opacity="0.01"/>
<path id="&#229;&#189;&#162;&#231;&#138;&#182;&#231;&#187;&#147;&#229;&#144;&#136;" fill-rule="evenodd" clip-rule="evenodd" d="M7.96976 1C4.08612 1 1 4.11636 1 7.96976C1 11.8515 4.08801 15 7.96976 15C11.8515 15 15 11.8515 15 7.96976C15 4.11636 11.8515 1 7.96976 1ZM12.2238 12.2219C11.672 12.7738 11.0275 13.2084 10.3113 13.5108C9.57046 13.8245 8.7824 13.9833 7.96976 13.9833C7.15713 13.9833 6.36906 13.8245 5.62824 13.5108C4.91199 13.2084 4.26944 12.7738 3.71571 12.2219C3.16388 11.6701 2.78213 11.0256 2.47975 10.3094C2.16604 9.56857 2.01485 8.7824 2.01485 7.96976C2.01485 7.15713 2.16604 6.36906 2.47975 5.62824C2.78213 4.91199 3.16388 4.26944 3.71571 3.71571C4.26755 3.16388 4.91199 2.79347 5.62824 2.49109C6.36906 2.17738 7.15713 2.02619 7.96976 2.02619C8.7824 2.02619 9.57046 2.17738 10.3113 2.49109C11.0275 2.79347 11.6701 3.16388 12.2238 3.71571C12.7756 4.26755 13.2103 4.91199 13.5127 5.62824C13.8264 6.36906 13.9852 7.15713 13.9852 7.96976C13.9852 8.7824 13.8264 9.57046 13.5127 10.3113C13.2103 11.0256 12.7756 11.6701 12.2238 12.2219ZM8.19276 4.52835V8.09638L9.74244 9.67441C9.94276 9.87473 9.94276 10.1979 9.74244 10.3982C9.64417 10.4984 9.51188 10.5475 9.38148 10.5475C9.25108 10.5475 9.12068 10.4984 9.02052 10.3982L7.32721 8.67657C7.22327 8.58207 7.15524 8.44978 7.15524 8.30238L7.15335 4.53213C7.15335 4.24865 7.38013 4.01998 7.66361 4.01809H7.6655C7.94708 4.01809 8.19087 4.24676 8.19276 4.52835Z" fill="var(--fill-0, #AEB1B6)"/>
</g>
</svg>
