<svg preserveAspectRatio="none" width="100%" height="100%" overflow="visible" style="display: block;" viewBox="0 0 12 12" fill="none" xmlns="http://www.w3.org/2000/svg">
<g id="&#231;&#188;&#150;&#231;&#187;&#132;">
<path id="&#232;&#183;&#175;&#229;&#190;&#132;" d="M6.00003 0C2.66675 0 0 2.66664 0 5.99998C0 9.33328 2.66674 12 6.00003 12C9.33338 12 12 9.33326 12 5.99998C12 5.66668 11.7779 5.44443 11.4444 5.44443C11.1111 5.44443 10.8889 5.66668 10.8889 5.99998C10.8889 8.66663 8.66665 10.8889 6.00003 10.8889C3.33337 10.8889 1.11111 8.66663 1.11111 5.99998C1.11111 3.33337 3.33337 1.11109 6.00003 1.11109C6.88891 1.11109 7.88888 1.33336 8.55562 1.88886V2V2L8.00004 2.66664C7.77783 2.8889 8.00004 3.33337 8.33334 3.33337L10.8889 3.44442C11.1111 3.44442 11.3334 3.1111 11.3334 2.8889L10.5556 0.444456C10.4445 0.111123 10 0 9.77785 0.333309L9.33338 0.999951C8.33334 0.333309 7.22225 0 6.00003 0V0Z" fill="var(--fill-0, #AEB1B6)"/>
</g>
</svg>
