<svg preserveAspectRatio="none" width="100%" height="100%" overflow="visible" style="display: block;" viewBox="0 0 16 16" fill="none" xmlns="http://www.w3.org/2000/svg">
<g id="icon_right">
<rect id="&#231;&#159;&#169;&#229;&#189;&#162;" width="16" height="16" fill="var(--fill-0, #D8D8D8)" fill-opacity="0.01"/>
<path id="&#232;&#183;&#175;&#229;&#190;&#132;" d="M6.90051 13C7.08012 13 7.25936 12.9303 7.39606 12.7908C7.5278 12.6569 7.60185 12.475 7.60185 12.2853C7.60185 12.0956 7.5278 11.9137 7.39606 11.7799L4.37453 8.69676L13.34 8.70451C13.7049 8.70451 14.0015 8.40305 14 8.03108C14 7.65717 13.7038 7.35417 13.3385 7.35417L4.33428 7.34526L7.39606 4.22109C7.5278 4.08723 7.60185 3.90534 7.60185 3.71563C7.60185 3.52593 7.5278 3.34404 7.39606 3.21018C7.26486 3.07564 7.08652 3 6.90051 3C6.7145 3 6.53616 3.07564 6.40496 3.21018L2.20587 7.49521C2.07188 7.63126 1.99762 7.81691 2.00006 8.00977V8.01868C2.00006 8.22598 2.09119 8.41119 2.23435 8.53518L6.40496 12.7912C6.54166 12.9303 6.72128 13 6.90051 13V13Z" fill="var(--fill-0, black)"/>
</g>
</svg>
