<svg preserveAspectRatio="none" width="100%" height="100%" overflow="visible" style="display: block;" viewBox="0 0 16 16" fill="none" xmlns="http://www.w3.org/2000/svg">
<g id="&#231;&#188;&#150;&#231;&#187;&#132; 5">
<rect id="&#231;&#159;&#169;&#229;&#189;&#162;" width="16" height="16" fill="var(--fill-0, #D8D8D8)" fill-opacity="0.01"/>
<path id="&#229;&#189;&#162;&#231;&#138;&#182;" fill-rule="evenodd" clip-rule="evenodd" d="M14.4053 7.70267C14.4053 4.00089 11.4044 1 7.70267 1C4.00089 1 1 4.00089 1 7.70267C1 11.4044 4.00089 14.4053 7.70267 14.4053C9.33448 14.4076 10.9107 13.8123 12.1335 12.7318L14.2769 14.8759C14.3839 14.9829 14.5399 15.0247 14.6861 14.9856C14.8322 14.9464 14.9464 14.8322 14.9856 14.6861C15.0247 14.5399 14.9829 14.3839 14.8759 14.2769L12.7318 12.1335C13.8123 10.9107 14.4076 9.33448 14.4053 7.70267ZM1.84665 7.70267C1.84665 4.46848 4.46848 1.84665 7.70267 1.84665C10.9369 1.84665 13.5587 4.46848 13.5587 7.70267C13.5587 10.9369 10.9369 13.5587 7.70267 13.5587C4.46848 13.5587 1.84665 10.9369 1.84665 7.70267Z" fill="var(--fill-0, #595B5F)"/>
</g>
</svg>
