<svg preserveAspectRatio="none" width="100%" height="100%" overflow="visible" style="display: block;" viewBox="0 0 16 16" fill="none" xmlns="http://www.w3.org/2000/svg">
<g id="icon_close">
<rect id="&#231;&#159;&#169;&#229;&#189;&#162;" width="16" height="16" fill="var(--fill-0, #D8D8D8)" fill-opacity="0.01"/>
<path id="&#232;&#183;&#175;&#229;&#190;&#132;" d="M8.93191 7.99997L13.8198 3.11196C14.0666 2.86527 14.0666 2.45847 13.8198 2.2117L13.7932 2.18502C13.5465 1.93833 13.1397 1.93833 12.8929 2.18502L8.00497 7.0797L3.11696 2.18502C2.87019 1.93833 2.46339 1.93833 2.2167 2.18502L2.19001 2.2117C2.06853 2.32996 2 2.49229 2 2.66183C2 2.83137 2.06853 2.99371 2.19001 3.11196L7.07802 7.99997L2.19001 12.8881C1.94333 13.1347 1.94333 13.5416 2.19001 13.7882L2.2167 13.8149C2.46339 14.0617 2.87019 14.0617 3.11696 13.8149L8.00497 8.92692L12.8929 13.8149C13.1397 14.0617 13.5465 14.0617 13.7932 13.8149L13.8198 13.7882C14.0666 13.5416 14.0666 13.1347 13.8198 12.8881L8.93191 7.99997V7.99997Z" fill="var(--fill-0, #595B5F)"/>
</g>
</svg>
