<svg preserveAspectRatio="none" width="100%" height="100%" overflow="visible" style="display: block;" viewBox="0 0 8 12" fill="none" xmlns="http://www.w3.org/2000/svg">
<g id="&#231;&#188;&#150;&#231;&#187;&#132;">
<path id="&#229;&#189;&#162;&#231;&#138;&#182;" fill-rule="evenodd" clip-rule="evenodd" d="M0 0.00225025L2.87359 6.73311V6.72974L2.87403 6.73075L2.86906 9.26127C2.86497 11.6664 2.86225 11.8014 2.83094 11.8014C2.37712 11.8194 1.92375 11.8444 1.47106 11.8764C1.26551 11.8914 0.853956 11.9263 0.557658 11.9563C0.260906 11.9844 0.0140662 12.0036 0.00907499 11.9994C0.00408374 11.9953 0 9.29464 0 5.99728V0.00225025ZM0.81756 0.00160729L0 0.00225025V0.00150017L0.81756 0.00160729ZM2.86213 0.00187519L0.81756 0.00160729L2.86134 0L2.86213 0.00187519ZM2.88061 0.0458497C2.88034 0.0453359 2.88012 0.0449289 2.87995 0.0446299L2.86213 0.00187519L2.86225 0.00187521L2.8804 0.04538L2.88061 0.0458497ZM2.98274 0.279968L2.88061 0.0458497C2.88748 0.0591972 2.92458 0.144613 2.98274 0.279968ZM3.5267 1.5512L3.52745 1.53842L3.41265 1.26539L2.98274 0.279968C3.04263 0.419331 3.12483 0.611635 3.21935 0.832727L3.21937 0.832795L3.4063 1.26989L3.5267 1.5512ZM5.13645 5.31128L5.13599 5.31021L4.87236 4.69514L3.5267 1.5512L3.1826 7.43894L3.1041 7.25105L2.87405 6.72111L2.87403 6.73075L3.10092 7.25967C3.72249 8.71325 4.20256 9.83506 4.53033 10.6001L4.53023 10.6017C4.86601 11.3851 5.04569 11.8033 5.04751 11.8052C5.04978 11.807 5.24126 11.8172 5.47222 11.8262C6.17235 11.8513 7.03901 11.9162 7.69877 11.9811C7.84986 11.9961 7.98145 12.0009 7.98917 11.9961C7.99688 11.9912 8.00142 9.28564 7.9996 5.99053L7.99461 0.00525058L5.14733 0.00637569L5.14143 2.65979L5.13645 5.31128ZM5.13645 5.31128L5.13644 5.31321L4.87191 4.69701V4.69589L4.53033 10.6001C4.8687 11.3898 5.04476 11.7993 5.0466 11.801L5.06884 11.8021L5.06888 11.8021C5.12594 11.805 5.28591 11.8131 5.47131 11.8209C6.17054 11.846 7.03811 11.9109 7.69514 11.9758C7.84623 11.9908 7.97691 11.9957 7.98554 11.9908L5.13645 5.31128Z" fill="var(--fill-0, #E50914)"/>
</g>
</svg>
