<svg preserveAspectRatio="none" width="100%" height="100%" overflow="visible" style="display: block;" viewBox="0 0 16 16" fill="none" xmlns="http://www.w3.org/2000/svg">
<g id="icon_home">
<rect id="&#231;&#159;&#169;&#229;&#189;&#162;" width="16" height="16" fill="var(--fill-0, #D8D8D8)" fill-opacity="0.01"/>
<path id="&#229;&#189;&#162;&#231;&#138;&#182;&#231;&#187;&#147;&#229;&#144;&#136;" fill-rule="evenodd" clip-rule="evenodd" d="M2.33474 13.6618C2.54906 13.8783 2.83975 14 3.14286 14H6V13.9303L6.00241 10.477L6.00952 10.3774C6.0921 9.59301 6.69086 9 7.40411 9H9.59589L9.60829 9.00021L9.67081 9.00279L9.76152 9.01092C10.4688 9.10415 11 9.76964 11 10.5582V14H12.8571C13.1602 14 13.4509 13.8783 13.6653 13.6618C13.8796 13.4453 14 13.1516 14 12.8453V5.49168C14.0001 5.04627 13.7466 4.64053 13.3486 4.449L8.49143 2.1122C8.18054 1.9626 7.81946 1.9626 7.50857 2.1122L2.65143 4.449C2.25342 4.64053 1.99992 5.04627 2 5.49168V12.8453C2 13.1516 2.12041 13.4453 2.33474 13.6618Z" fill="var(--fill-0, #AEB1B6)"/>
</g>
</svg>
